<?xml version="1.0" standalone="no"?>
<!DOCTYPE svg PUBLIC "-//W3C//DTD SVG 20010904//EN"
 "http://www.w3.org/TR/2001/REC-SVG-20010904/DTD/svg10.dtd">
<svg version="1.0" xmlns="http://www.w3.org/2000/svg"
 width="500.000000pt" height="500.000000pt" viewBox="0 0 500.000000 500.000000"
 preserveAspectRatio="xMidYMid meet">
<metadata>
Created by potrace 1.16, written by Peter Selinger 2001-2019
</metadata>
<g transform="translate(0.000000,500.000000) scale(0.100000,-0.100000)"
fill="#000000" stroke="none">
<path d="M4520 3384 c0 -12 -362 -382 -967 -988 -533 -534 -965 -968 -961
-966 28 18 1929 1928 1934 1943 3 10 3 21 0 24 -3 4 -6 -2 -6 -13z"/>
<path d="M1445 2390 c528 -528 962 -960 965 -960 3 0 -427 432 -955 960 -528
528 -962 960 -965 960 -3 0 427 -432 955 -960z"/>
</g>
</svg>
